<?xml version="1.0" encoding="UTF-8"?>
<svg id="Layer_2" data-name="Layer 2" xmlns="http://www.w3.org/2000/svg" xmlns:xlink="http://www.w3.org/1999/xlink" viewBox="0 0 713.38 175.25">
  <defs>
    <style>
      .cls-1 {
        stroke-width: 3px;
      }

      .cls-1, .cls-2, .cls-3, .cls-4, .cls-5 {
        stroke: #000;
        stroke-miterlimit: 10;
      }

      .cls-1, .cls-4 {
        fill: #fff;
      }

      .cls-2 {
        fill: url(#linear-gradient-2);
      }

      .cls-3 {
        fill: url(#linear-gradient);
      }

      .cls-5 {
        fill: url(#Sky);
      }
    </style>
    <linearGradient id="linear-gradient" x1="126.04" y1=".5" x2="126.04" y2="64.33" gradientUnits="userSpaceOnUse">
      <stop offset="0" stop-color="#fbb812"/>
      <stop offset=".36" stop-color="#f7bb10"/>
      <stop offset=".69" stop-color="#eec60a"/>
      <stop offset="1" stop-color="#dfd800"/>
      <stop offset="1" stop-color="#dfd900"/>
    </linearGradient>
    <linearGradient id="linear-gradient-2" x1="36.7" y1="33.91" x2="36.7" y2="154" gradientUnits="userSpaceOnUse">
      <stop offset="0" stop-color="#40a528"/>
      <stop offset=".2" stop-color="#42a92c"/>
      <stop offset=".41" stop-color="#4bb538"/>
      <stop offset=".63" stop-color="#59c94d"/>
      <stop offset=".84" stop-color="#6ce569"/>
      <stop offset="1" stop-color="#7fff84"/>
    </linearGradient>
    <linearGradient id="Sky" x1="183.18" y1="89.18" x2="263.92" y2="89.18" gradientUnits="userSpaceOnUse">
      <stop offset="0" stop-color="#cce0f4"/>
      <stop offset=".06" stop-color="#c2dcf2"/>
      <stop offset=".17" stop-color="#a9d2ee"/>
      <stop offset=".31" stop-color="#7fc2e7"/>
      <stop offset=".46" stop-color="#46abdd"/>
      <stop offset=".57" stop-color="#1e9cd7"/>
      <stop offset=".87" stop-color="#0075be"/>
      <stop offset=".99" stop-color="#005b97"/>
    </linearGradient>
  </defs>
  <g id="Layer_1-2" data-name="Layer 1">
    <g>
      <path class="cls-3" d="M203.2,21.24c-6.23-3.99-12.86-7.48-19.72-10.38C167.23,3.99,149.98.5,132.21.5s-35.02,3.49-51.27,10.36c-11.62,4.91-22.44,11.45-32.16,19.42l-1.1.9,28.37,33.15,1.05-.84c15.58-12.52,35.15-19.41,55.11-19.41,16.43,0,32.47,4.58,46.39,13.23l1.13.7,24.68-36-1.21-.77Z"/>
      <path class="cls-2" d="M44.54,33.91l-1.06.97c-1.5,1.37-2.98,2.79-4.4,4.2-12.09,12.09-21.58,26.17-28.22,41.86C3.99,97.19.5,114.44.5,132.21c0,12.01,9.77,21.79,21.79,21.79s21.79-9.77,21.79-21.79c0-24.2,10.16-47.61,27.86-64.24l.97-.91-28.37-33.16Z"/>
      <path class="cls-5" d="M253.56,80.93c-6.63-15.69-16.13-29.77-28.22-41.86-5.07-5.07-10.57-9.74-16.34-13.89l-1.15-.83-24.67,35.99,1.08.8c22.59,16.59,36.08,43.16,36.08,71.07,0,12.01,9.77,21.79,21.79,21.79s21.79-9.77,21.79-21.79c0-17.77-3.49-35.02-10.36-51.27Z"/>
    </g>
    <g>
      <path class="cls-4" d="M318.74,102.55c9.34-.26,23.81-.9,31.62-1.66,0,1.41-4.74,4.35-6.78,5.12-4.48,1.15-16.13,2.18-27.26,2.94-3.46,8.96-5.76,16.13-7.04,22.02-.26,1.41.26,1.92,1.92,1.92,13.7,0,28.29-.64,37.38-2.94,0,1.15-2.43,4.48-4.99,5.5-5.89,2.43-23.94,4.86-44.03,4.86-3.07,0-4.1-.9-3.71-2.3,3.46-14.72,14.21-40.19,19.97-51.97,3.33-2.43,9.22-4.35,12.67-4.35-3.84,7.55-7.17,14.59-9.73,20.87ZM318.61,71.32c16.77-1.28,41.09-1.41,48.26-1.79,0,.9-4.1,4.61-7.94,5.63-4.86,1.41-16.9,1.54-29.06,2.18-5.12.26-14.46,1.28-20.61,2.3.51-2.43,5.38-6.78,9.34-8.32Z"/>
      <path class="cls-4" d="M399.5,92.57c2.43,0,5.63.38,7.68.77-4.99,12.29-9.6,24.96-9.6,36.23,0,.9.26,1.54.38,2.3-3.07,3.71-9.22,6.66-11.78,6.66,0-9.98,1.54-16.26,4.1-24.83-7.81,9.09-23.17,25.34-32.13,25.34-3.2,0-4.48-2.94-4.48-5.5,0-6.91,4.35-18.56,12.93-27.14,11.78-11.65,21.5-13.82,32.9-13.82ZM365.58,124.95c0,2.69.38,4.22,1.66,4.22,3.71,0,8.19-3.2,12.54-7.55,8.32-8.45,12.29-16.51,14.72-22.02-1.92-1.02-4.99-1.79-8.32-1.79-2.82,0-7.81,1.15-11.39,4.74-5.12,5.12-9.22,16.51-9.22,22.4Z"/>
      <path class="cls-4" d="M435.85,111c6.27,3.33,10.62,6.14,10.62,11.26,0,2.56-1.28,4.61-3.07,6.4-6.14,6.14-17.15,10.5-25.86,10.5s-12.8-3.97-12.8-8.45c.9-2.69,3.58-6.27,6.27-7.04,1.54,6.91,5.89,12.03,12.29,12.03,3.46,0,6.66-1.02,9.09-3.33,2.3-2.18,3.07-4.1,3.07-5.89,0-2.82-2.43-5.5-8.83-8.96-7.81-4.22-9.86-6.78-9.86-10.37,0-1.79,1.02-3.58,2.43-4.99,4.22-4.22,14.34-9.6,26.88-9.6,2.18,0,4.86.51,6.27,1.15,0,1.79-3.58,5.12-5.5,6.02-2.05-1.79-5.63-3.2-8.7-3.2-3.97,0-7.3,1.02-9.34,3.07-.77.77-1.54,1.92-1.54,3.07,0,2.69,1.41,4.61,8.58,8.32Z"/>
      <path class="cls-4" d="M466.7,165.28c6.4-5.76,10.62-11.01,22.02-49.92-8.83,9.22-25.22,23.17-31.75,23.17-1.66,0-2.82-1.66-2.82-5.5,0-9.09,8.06-28.67,11.14-34.56,2.3-1.79,8.45-4.35,11.26-4.35-8.83,18.18-11.14,27.78-11.14,30.72,0,2.43.38,3.97,1.66,3.97,2.56,0,8.45-3.84,13.57-8.96,9.22-9.22,11.14-14.21,14.08-22.66,3.07-1.79,8.19-4.22,11.52-4.35-2.69,5.63-5.63,14.59-7.94,22.66-7.42,25.47-12.29,36.61-20.35,44.67-10.5,10.37-21.76,14.59-31.49,14.59s-14.46-4.61-15.36-7.94c0-2.05,1.79-7.55,4.61-9.47,2.3,6.79,8.45,13.19,16.13,13.19,6.53,0,11.26-2.05,14.85-5.25Z"/>
    </g>
    <g>
      <path class="cls-4" d="M558.56,72.27c6.75,0,12.55,1.37,17.4,4.11,4.84,2.74,8.51,6.64,11,11.69s3.73,10.98,3.73,17.79c0,5.04-.68,9.61-2.04,13.73-1.36,4.12-3.41,7.69-6.13,10.71-2.73,3.02-6.07,5.33-10.04,6.93-3.97,1.6-8.52,2.4-13.64,2.4s-9.66-.82-13.69-2.47c-4.03-1.64-7.39-3.96-10.09-6.95-2.7-2.99-4.73-6.59-6.11-10.8-1.38-4.21-2.07-8.75-2.07-13.64s.72-9.6,2.16-13.77c1.44-4.18,3.52-7.73,6.24-10.66s6.04-5.18,9.95-6.73c3.91-1.55,8.35-2.33,13.33-2.33ZM577.31,105.77c0-4.77-.77-8.9-2.31-12.4-1.54-3.49-3.74-6.14-6.6-7.93-2.86-1.79-6.14-2.69-9.84-2.69-2.64,0-5.07.5-7.31,1.49-2.24.99-4.16,2.44-5.78,4.33-1.62,1.9-2.89,4.32-3.82,7.27-.93,2.95-1.4,6.26-1.4,9.93s.47,7.05,1.4,10.04c.93,2.99,2.25,5.47,3.95,7.44,1.7,1.97,3.66,3.44,5.87,4.42,2.21.98,4.63,1.47,7.26,1.47,3.38,0,6.48-.84,9.31-2.53,2.83-1.69,5.08-4.29,6.75-7.82,1.67-3.52,2.51-7.87,2.51-13.02Z"/>
      <path class="cls-4" d="M644.89,83.56h-29.73v16h27.37c2.01,0,3.52.45,4.51,1.36.99.9,1.49,2.1,1.49,3.58s-.49,2.69-1.47,3.62-2.49,1.4-4.53,1.4h-27.37v18.53h30.75c2.07,0,3.64.48,4.69,1.45,1.05.96,1.58,2.24,1.58,3.84s-.53,2.79-1.58,3.76c-1.05.96-2.62,1.44-4.69,1.44h-35.86c-2.87,0-4.94-.64-6.2-1.91-1.26-1.27-1.89-3.33-1.89-6.18v-48.97c0-1.89.28-3.44.84-4.64s1.44-2.07,2.64-2.62c1.2-.55,2.73-.82,4.6-.82h34.84c2.1,0,3.67.47,4.69,1.4,1.02.93,1.53,2.16,1.53,3.67s-.51,2.78-1.53,3.71c-1.02.93-2.58,1.4-4.69,1.4Z"/>
      <path class="cls-4" d="M705.59,83.56h-29.73v16h27.37c2.01,0,3.52.45,4.51,1.36.99.9,1.49,2.1,1.49,3.58s-.49,2.69-1.47,3.62-2.49,1.4-4.53,1.4h-27.37v18.53h30.75c2.07,0,3.64.48,4.69,1.45,1.05.96,1.58,2.24,1.58,3.84s-.53,2.79-1.58,3.76c-1.05.96-2.62,1.44-4.69,1.44h-35.86c-2.87,0-4.94-.64-6.2-1.91-1.26-1.27-1.89-3.33-1.89-6.18v-48.97c0-1.89.28-3.44.84-4.64s1.44-2.07,2.64-2.62c1.2-.55,2.73-.82,4.6-.82h34.84c2.1,0,3.67.47,4.69,1.4,1.02.93,1.53,2.16,1.53,3.67s-.51,2.78-1.53,3.71c-1.02.93-2.58,1.4-4.69,1.4Z"/>
    </g>
    <path class="cls-1" d="M129.31,110.74l84.49-61.74c1.59-1.16,3.81-.81,4.97.77h0c1,1.37.9,3.27-.26,4.51l-86.68,93.82c-1.71,1.85-4.24,2.73-6.73,2.35h0c-1.99-.31-3.77-1.39-4.96-3.02l-26.9-36.81c-3.63-4.97-2.55-11.94,2.42-15.58h0c4.05-2.96,9.57-2.85,13.5.27,7.83,6.21,19.84,15.66,20.14,15.43Z"/>
  </g>
</svg>